REM MD5 edc9a4fd9b15b4efccd935d18e69f289
FILE "Cochons de Guerre, Les (France).bin" BINARY
  TRACK 01 MODE2/2352
    INDEX 01 00:00:00
  TRACK 02 AUDIO
    INDEX 00 36:29:41
    INDEX 01 36:31:41
  TRACK 03 AUDIO
    INDEX 00 39:18:39
    INDEX 01 39:20:39
REM LEADOUT 40:30:35
